HIERARCHY
ROOT root
{
	OFFSET 0.000000 0.000000 0.000000
	CHANNELS 6 Xposition Yposition Zposition Zrotation Yrotation Xrotation
	JOINT lhip
	{
		OFFSET 0.058581 -0.082280 -0.017664
		CHANNELS 3 Zrotation Yrotation Xrotation
		JOINT lknee
		{
			OFFSET 0.043451 -0.386469 0.008037
			CHANNELS 3 Zrotation Yrotation Xrotation
			JOINT lankle
			{
				OFFSET -0.014790 -0.426874 -0.037428
				CHANNELS 3 Zrotation Yrotation Xrotation
				JOINT ltoe
				{
					OFFSET 0.041054 -0.060286 0.122042
					CHANNELS 3 Zrotation Yrotation Xrotation
					End Site
					{
						OFFSET 0.000000 0.000000 0.000000
					}
				}
			}
		}
	}
	JOINT rhip
	{
		OFFSET -0.060310 -0.090513 -0.013543
		CHANNELS 3 Zrotation Yrotation Xrotation
		JOINT rknee
		{
			OFFSET -0.043257 -0.383688 -0.004843
			CHANNELS 3 Zrotation Yrotation Xrotation
			JOINT rankle
			{
				OFFSET 0.019056 -0.420046 -0.034562
				CHANNELS 3 Zrotation Yrotation Xrotation
				JOINT rtoe
				{
					OFFSET -0.034840 -0.062106 0.130323
					CHANNELS 3 Zrotation Yrotation Xrotation
					End Site
					{
						OFFSET 0.000000 0.000000 0.000000
					}
				}
			}
		}
	}
	JOINT lowerback
	{
		OFFSET 0.004439 0.124404 -0.038385
		CHANNELS 3 Zrotation Yrotation Xrotation
		JOINT upperback
		{
			OFFSET 0.004488 0.137956 0.026820
			CHANNELS 3 Zrotation Yrotation Xrotation
			JOINT chest
			{
				OFFSET -0.002265 0.056032 0.002855
				CHANNELS 3 Zrotation Yrotation Xrotation
				JOINT lowerneck
				{
					OFFSET -0.013390 0.211636 -0.033468
					CHANNELS 3 Zrotation Yrotation Xrotation
					JOINT upperneck
					{
						OFFSET 0.010113 0.088937 0.050410
						CHANNELS 3 Zrotation Yrotation Xrotation
						End Site
						{
							OFFSET 0.000000 0.000000 0.000000
						}
					}
				}
				JOINT lclavicle
				{
					OFFSET 0.071702 0.114000 -0.018898
					CHANNELS 3 Zrotation Yrotation Xrotation
					JOINT lshoulder
					{
						OFFSET 0.122921 0.045205 -0.019046
						CHANNELS 3 Zrotation Yrotation Xrotation
						JOINT lelbow
						{
							OFFSET 0.255332 -0.015649 -0.022946
							CHANNELS 3 Zrotation Yrotation Xrotation
							JOINT lwrist
							{
								OFFSET 0.265709 0.012698 -0.007375
								CHANNELS 3 Zrotation Yrotation Xrotation
								End Site
								{
									OFFSET 0.000000 0.000000 0.000000
								}
							}
						}
					}
				}
				JOINT rclavicle
				{
					OFFSET -0.082954 0.112472 -0.023707
					CHANNELS 3 Zrotation Yrotation Xrotation
					JOINT rshoulder
					{
						OFFSET -0.113228 0.046853 -0.008472
						CHANNELS 3 Zrotation Yrotation Xrotation
						JOINT relbow
						{
							OFFSET -0.260127 -0.014369 -0.031269
							CHANNELS 3 Zrotation Yrotation Xrotation
							JOINT rwrist
							{
								OFFSET -0.269108 0.006794 -0.006027
								CHANNELS 3 Zrotation Yrotation Xrotation
								End Site
								{
									OFFSET 0.000000 0.000000 0.000000
								}
							}
						}
					}
				}
			}
		}
	}
}
MOTION
Frames: 7
Frame Time: 0.033333
-0.030283 -0.204102 0.933383 -175.056297 -0.611899 91.696822 9.917680 -1.412846 -23.393718 -7.413960 -3.911703 31.478254 0.123053 -0.442330 -16.770769 0.000000 -0.000000 0.000000 -13.784309 -7.753536 -20.914850 -1.160753 -5.892293 29.893540 5.000474 0.586439 -15.223475 0.000000 -0.000000 0.000000 2.451340 5.193392 18.233727 3.759496 -4.722323 9.831695 2.169906 -0.583964 -6.125427 1.354845 9.359003 11.768544 2.166600 0.226045 14.315373 -14.647417 -29.752789 1.096990 -80.776567 -28.211791 28.734081 5.100688 -13.428935 10.112086 -10.316255 8.834773 -29.740321 18.701952 27.812715 8.333846 71.575090 33.027609 16.238350 -10.871752 5.476874 -22.511284 19.800616 6.864029 -54.275987 
-0.030249 -0.204466 0.933239 -174.959993 -0.615048 91.641366 9.932996 -1.331950 -23.448758 -7.090996 -3.277480 31.734349 0.109718 -1.269635 -16.788151 0.000000 -0.000000 0.000000 -13.864722 -7.484517 -20.741027 -1.316920 -6.167807 29.883738 4.574903 1.041892 -15.501505 0.000000 -0.000000 0.000000 2.493508 5.200999 18.111918 3.777696 -4.841515 10.116344 2.073704 -0.400659 -6.211641 1.605306 9.692207 11.545028 2.199535 -0.268147 14.949832 -14.245837 -30.066842 1.479590 -80.561525 -28.887721 27.968118 5.215411 -13.068106 10.045896 -12.758071 6.418027 -29.739643 18.819146 27.699142 8.928507 71.318847 33.628326 15.671865 -10.717966 5.543366 -21.970212 20.195508 7.701470 -54.799047 
-0.030267 -0.204659 0.933335 -174.882638 -0.616496 91.605754 9.895009 -1.022178 -23.683065 -7.089742 -2.470078 32.146533 -0.133719 -1.102823 -16.547027 0.000000 -0.000000 0.000000 -13.857314 -7.714284 -20.855597 -1.553631 -6.791713 30.128775 4.587171 1.198367 -15.299865 0.000000 -0.000000 0.000000 2.570204 5.274593 18.049683 3.824393 -4.816927 10.301062 2.023491 -0.433116 -6.298518 1.793250 9.779941 11.434810 2.006353 -0.571367 15.267451 -13.922763 -30.035848 1.381515 -80.681141 -29.088026 27.972861 5.296483 -12.944324 10.648525 -14.216323 5.119525 -30.307186 18.795308 27.674354 8.890060 71.358078 33.622824 15.693731 -10.895819 5.708770 -21.493190 20.974488 8.859733 -55.437221 
-0.030411 -0.204812 0.933277 -174.869844 -0.659262 91.639790 9.861579 -1.119952 -23.715573 -7.176331 -2.396635 32.023285 -0.005505 -0.832461 -16.487155 0.000000 -0.000000 0.000000 -13.933292 -7.451836 -20.725718 -1.453646 -6.361447 29.946533 4.558941 1.205545 -15.623504 0.000000 -0.000000 0.000000 2.498053 5.381454 17.935093 3.889632 -4.743539 10.183519 2.019042 -0.401230 -6.064405 2.029871 9.821412 11.334538 1.832310 -0.906778 15.361427 -13.852622 -29.876593 0.964330 -80.932415 -29.143857 28.423959 4.980513 -12.623973 10.796855 -13.763961 5.374668 -30.026922 18.662310 27.470722 8.675781 71.597185 33.567677 16.159154 -11.120286 6.219656 -21.671089 20.098924 8.037442 -55.802346 
-0.030517 -0.204770 0.933317 -174.840829 -0.641487 91.647381 9.876261 -1.041889 -23.743287 -7.242164 -2.467998 32.054191 -0.019275 -0.901190 -16.473457 0.000000 -0.000000 0.000000 -13.927544 -7.536062 -20.742620 -1.415831 -6.333076 29.992785 4.523334 1.245143 -15.676566 0.000000 -0.000000 0.000000 2.492026 5.399414 17.928278 3.933198 -4.737218 10.063891 2.075539 -0.439402 -6.000158 2.015349 9.770629 11.393997 1.803732 -0.804823 15.454750 -14.039584 -29.867485 0.984187 -80.983413 -29.092284 28.455684 4.998623 -12.598557 10.872262 -13.152103 5.783520 -29.823745 18.782023 27.433885 8.722700 71.429411 33.636289 16.072613 -10.957266 6.348484 -21.726866 19.562650 8.000562 -55.977600 
-0.030603 -0.204877 0.933177 -174.847476 -0.647597 91.591451 9.882111 -0.983803 -23.681523 -7.398263 -2.588460 32.024169 0.114164 -0.655839 -16.477089 0.000000 -0.000000 0.000000 -13.924308 -7.565042 -20.637170 -1.276016 -6.116537 29.822390 4.472036 1.005810 -15.648609 0.000000 -0.000000 0.000000 2.475571 5.414874 18.004563 3.945037 -4.726945 9.938314 2.073810 -0.437620 -5.940231 1.923695 9.636705 11.456188 2.013611 -0.656896 15.416316 -14.037435 -30.072609 1.318160 -80.986212 -29.221873 28.739261 4.867054 -12.872048 10.987395 -11.490848 7.067571 -31.434105 18.848988 27.573233 8.870581 71.397784 34.014112 16.063150 -10.959310 5.921364 -21.765938 18.458621 7.392173 -56.258583 
-0.030786 -0.205030 0.932956 -174.865807 -0.629845 91.607252 9.931580 -0.929717 -23.771834 -7.325584 -2.378999 32.155147 0.036445 -0.990096 -16.511110 0.000000 -0.000000 0.000000 -13.952538 -7.577176 -20.705326 -1.324266 -6.331522 29.919994 4.482601 1.161023 -15.591311 0.000000 -0.000000 0.000000 2.519427 5.385943 17.922839 3.901443 -4.801728 10.126655 2.001281 -0.354147 -6.022437 2.123872 9.752883 11.151807 1.855093 -0.911882 15.704253 -13.871011 -30.035640 1.037824 -81.284090 -29.319013 28.714924 4.916327 -12.256584 10.753974 -11.371374 6.411726 -30.167298 18.783242 27.608182 8.801538 71.468386 34.189286 16.135944 -10.866161 5.762006 -21.919368 17.888016 7.375775 -56.264911 
